<svg width="147" height="33" viewBox="0 0 147 33" fill="none" xmlns="http://www.w3.org/2000/svg">
<path d="M45.1731 26H41.8057V8.69923H45.1731V26ZM66.2838 26H62.9164V14.5312L58.4509 23.0718H56.6208L52.1553 14.5312V26H48.7878V8.67483H52.3993L57.5236 18.5331L62.6968 8.67483H66.2838V26ZM73.2684 26H69.901V8.67483H77.2459C80.4425 8.67483 82.7606 11.603 82.7606 14.4336C82.7606 17.3862 80.5889 20.1924 77.3679 20.1924H73.2684V26ZM73.2684 11.6274V17.2398H77.1727C78.4171 17.2398 79.3444 16.1417 79.3444 14.4336C79.3444 12.6523 78.2219 11.6274 77.0263 11.6274H73.2684ZM88.4241 26H85.0567V8.67483H92.7188C95.9154 8.67483 98.2336 11.603 98.2336 14.4336C98.2336 16.6542 97.0135 18.6795 95.1102 19.4848L99.1852 26H95.3786L91.7427 20.1924H88.4241V26ZM88.4241 11.6274V17.2398H92.6456C93.8901 17.2398 94.8417 15.9953 94.8417 14.4336C94.8417 12.8231 93.6949 11.6274 92.4992 11.6274H88.4241ZM104.867 26H101.499V8.69923H104.867V26ZM120.755 26L111.849 14.8973V26H108.481V8.67483H111.092L120.121 20.046V8.69923H123.488V26H120.755ZM140.05 8.67483V11.6274H134.535V26H131.167V11.6274H125.628V8.67483H140.05Z" fill="#221F20"/>
<path d="M143.914 7.7988C142.415 7.7988 141.307 6.71816 141.307 5.27498C141.307 3.83876 142.415 2.76509 143.914 2.76509C145.441 2.76509 146.578 3.83876 146.578 5.27498C146.578 6.71816 145.441 7.7988 143.914 7.7988ZM143.914 7.45021C145.197 7.45021 146.194 6.56478 146.194 5.28195C146.194 4.06187 145.225 3.11369 143.914 3.11369C142.638 3.11369 141.683 4.06187 141.683 5.28195C141.683 6.50203 142.631 7.45021 143.914 7.45021ZM143.977 6.94126C142.938 6.94126 142.22 6.21618 142.22 5.27498C142.22 4.43138 142.806 3.61566 143.963 3.61566C144.702 3.61566 145.253 3.96426 145.504 4.50807L144.598 4.78694C144.458 4.50109 144.186 4.41046 143.956 4.41046C143.468 4.41046 143.175 4.80786 143.175 5.27498C143.175 5.83273 143.58 6.14646 143.963 6.14646C144.228 6.14646 144.493 6.00005 144.625 5.75604L145.532 6.02794C145.316 6.50203 144.765 6.94126 143.977 6.94126Z" fill="#221F20"/>
<rect width="33" height="33" rx="4" fill="#221F20"/>
<rect x="6" y="15" width="9" height="15" fill="white"/>
<circle cx="10.5" cy="8.5" r="5.5" fill="#D9D9D9"/>
<path fill-rule="evenodd" clip-rule="evenodd" d="M19 13.89C19.4847 13.9621 19.9863 14 20.5 14C24.6421 14 28 11.5376 28 8.5C28 5.46243 24.6421 3 20.5 3C19.9863 3 19.4847 3.03787 19 3.11002V13.89Z" fill="#D9D9D9"/>
</svg>
